# xmcd
#
# Track frame offsets:
#	150
#	14486
#	30452
#	43471
#	58930
#	75666
#	91395
#	108172
#	124876
#	138754
#	151739
#	165386
#	179947
#	196895
#	197360
#	197818
#	198286
#	199060
#	199600
#	200063
#	200538
#	201035
#	201536
#	201989
#	202664
#	203500
#	204098
#	204625
#	205119
#
# Disc length: 2741 seconds
#
# Revision: 1
# Processed by: cddbd v1.5.2PL0 Copyright (c) Steve Scherf et al.
# Submitted via: audiograbber 1.83.01
#
DISCID=af0ab31d
DTITLE=Various Artists  - CDX 603
DYEAR=2014
DGENRE=Country
TTITLE0=Easton Corbin - Baby Be My Love Song (Radio Edit)
TTITLE1=Lee Brice - Drinking Class
TTITLE2=Josh Abbott Band - Hangin' Around
TTITLE3=Darius Rucker - Homegrown Honey (Radio Edit)
TTITLE4=Lee Brice - I Don't Dance (Live Acoustic)
TTITLE5=Chris Young - Lonely Eyes (Radio Edit)
TTITLE6=Blake Shelton - Neon Light
TTITLE7=Kenny Davin Fine - Friendship
TTITLE8=Rick Patterson - Good For Me Deer
TTITLE9=Billy Ray Cyrus - Like A Country Song
TTITLE10=Two Way Crossing - Deep End
TTITLE11=Scott Collier - Honky Tonk City
TTITLE12=Kacey Jones - You've Tried The Patience Out Of Me
TTITLE13=Danika Portz - Home Town Country (Liner)
TTITLE14=Danika Portz - Kickin' Country (Liner)
TTITLE15=Danika Portz - More of the Country You Love (Liner)
TTITLE16=Danika Portz - My New Single (Liner)
TTITLE17=Danika Portz - Super Country Greatest Hits (Liner)
TTITLE18=Danika Portz - The Best In Country Music (Liner)
TTITLE19=Danika Portz - Today's Best Country (Liner)
TTITLE20=Danika Portz - Today's Hot Country Music (Liner)
TTITLE21=Brushville - Home Town Country (Liner)
TTITLE22=Brushville - Kickin' Country (Liner)
TTITLE23=Brushville - More of the Country You Love (Liner)
TTITLE24=Brushville - Our New Single (Liner)
TTITLE25=Brushville - Super Country (Liner)
TTITLE26=Brushville - The Best In Country Music (Liner)
TTITLE27=Brushville - Today's Best Country (Liner)
TTITLE28=Brushville - Today's Hot Country Music (Liner)
EXTD=
EXTT0=
EXTT1=
EXTT2=
EXTT3=
EXTT4=
EXTT5=
EXTT6=
EXTT7=
EXTT8=
EXTT9=
EXTT10=
EXTT11=
EXTT12=
EXTT13=
EXTT14=
EXTT15=
EXTT16=
EXTT17=
EXTT18=
EXTT19=
EXTT20=
EXTT21=
EXTT22=
EXTT23=
EXTT24=
EXTT25=
EXTT26=
EXTT27=
EXTT28=
PLAYORDER=
